# Blender v2.78 (sub 0) OBJ File: ''
# www.blender.org
mtllib untitled.mtl
o Cone.001
v 0.576274 -0.411312 -3.140465
v 1.085013 -0.411312 -3.071186
v 1.574202 -0.411312 -2.866012
v 2.025042 -0.411312 -2.532828
v 2.420206 -0.411312 -2.084437
v 2.744508 -0.411312 -1.538070
v 2.985487 -0.411312 -0.914726
v 3.133881 -0.411312 -0.238358
v 3.183987 -0.411312 0.465042
v 0.576274 5.304857 0.465042
v 3.133881 -0.411312 1.168441
v 2.985487 -0.411312 1.844809
v 2.744508 -0.411312 2.468154
v 2.420206 -0.411312 3.014520
v 2.025042 -0.411312 3.462912
v 1.574202 -0.411312 3.796097
v 1.085013 -0.411312 4.001270
v 0.576273 -0.411312 4.070549
v 0.067533 -0.411312 4.001270
v -0.421656 -0.411312 3.796095
v -0.872496 -0.411312 3.462910
v -1.267660 -0.411312 3.014519
v -1.591962 -0.411312 2.468152
v -1.832941 -0.411312 1.844807
v -1.981334 -0.411312 1.168438
v -2.031440 -0.411312 0.465038
v -1.981333 -0.411312 -0.238361
v -1.832939 -0.411312 -0.914730
v -1.591959 -0.411312 -1.538074
v -1.267656 -0.411312 -2.084440
v -0.872492 -0.411312 -2.532830
v -0.421652 -0.411312 -2.866014
v 0.067538 -0.411312 -3.071187
vn 0.1144 0.5300 -0.8402
vn 0.3309 0.5176 -0.7890
vn 0.5158 0.4968 -0.6980
vn 0.6610 0.4730 -0.5825
vn 0.7676 0.4508 -0.4556
vn 0.8408 0.4328 -0.3251
vn 0.8862 0.4205 -0.1944
vn 0.9079 0.4142 -0.0647
vn 0.9079 0.4142 0.0647
vn 0.8862 0.4205 0.1944
vn 0.8408 0.4328 0.3251
vn 0.7676 0.4508 0.4556
vn 0.6610 0.4730 0.5825
vn 0.5158 0.4968 0.6980
vn 0.3309 0.5176 0.7890
vn 0.1144 0.5300 0.8402
vn -0.1144 0.5300 0.8402
vn -0.3309 0.5176 0.7890
vn -0.5158 0.4968 0.6980
vn -0.6610 0.4730 0.5825
vn -0.7676 0.4508 0.4556
vn -0.8408 0.4328 0.3251
vn -0.8862 0.4205 0.1944
vn -0.9079 0.4142 0.0647
vn -0.9079 0.4142 -0.0647
vn -0.8862 0.4205 -0.1944
vn -0.8408 0.4328 -0.3251
vn -0.7676 0.4508 -0.4556
vn -0.6610 0.4730 -0.5825
vn -0.5158 0.4968 -0.6980
vn -0.3309 0.5176 -0.7890
vn -0.1144 0.5300 -0.8402
vn 0.0000 -1.0000 0.0000
usemtl None
s off
f 1//1 10//1 2//1
f 2//2 10//2 3//2
f 3//3 10//3 4//3
f 4//4 10//4 5//4
f 5//5 10//5 6//5
f 6//6 10//6 7//6
f 7//7 10//7 8//7
f 8//8 10//8 9//8
f 9//9 10//9 11//9
f 11//10 10//10 12//10
f 12//11 10//11 13//11
f 13//12 10//12 14//12
f 14//13 10//13 15//13
f 15//14 10//14 16//14
f 16//15 10//15 17//15
f 17//16 10//16 18//16
f 18//17 10//17 19//17
f 19//18 10//18 20//18
f 20//19 10//19 21//19
f 21//20 10//20 22//20
f 22//21 10//21 23//21
f 23//22 10//22 24//22
f 24//23 10//23 25//23
f 25//24 10//24 26//24
f 26//25 10//25 27//25
f 27//26 10//26 28//26
f 28//27 10//27 29//27
f 29//28 10//28 30//28
f 30//29 10//29 31//29
f 31//30 10//30 32//30
f 32//31 10//31 33//31
f 33//32 10//32 1//32
f 1//33 2//33 3//33 4//33 5//33 6//33 7//33 8//33 9//33 11//33 12//33 13//33 14//33 15//33 16//33 17//33 18//33 19//33 20//33 21//33 22//33 23//33 24//33 25//33 26//33 27//33 28//33 29//33 30//33 31//33 32//33 33//33
o Cone
v 0.000000 -1.000000 -1.000000
v 0.195090 -1.000000 -0.980785
v 0.382683 -1.000000 -0.923880
v 0.555570 -1.000000 -0.831470
v 0.707107 -1.000000 -0.707107
v 0.831470 -1.000000 -0.555570
v 0.923880 -1.000000 -0.382683
v 0.980785 -1.000000 -0.195090
v 1.000000 -1.000000 -0.000000
v 0.000000 1.000000 0.000000
v 0.980785 -1.000000 0.195090
v 0.923880 -1.000000 0.382683
v 0.831470 -1.000000 0.555570
v 0.707107 -1.000000 0.707107
v 0.555570 -1.000000 0.831470
v 0.382683 -1.000000 0.923880
v 0.195090 -1.000000 0.980785
v -0.000000 -1.000000 1.000000
v -0.195091 -1.000000 0.980785
v -0.382684 -1.000000 0.923879
v -0.555571 -1.000000 0.831469
v -0.707107 -1.000000 0.707106
v -0.831470 -1.000000 0.555570
v -0.923880 -1.000000 0.382683
v -0.980785 -1.000000 0.195089
v -1.000000 -1.000000 -0.000001
v -0.980785 -1.000000 -0.195091
v -0.923879 -1.000000 -0.382684
v -0.831469 -1.000000 -0.555571
v -0.707106 -1.000000 -0.707108
v -0.555569 -1.000000 -0.831470
v -0.382682 -1.000000 -0.923880
v -0.195089 -1.000000 -0.980786
vn 0.0878 0.4455 -0.8910
vn 0.2599 0.4455 -0.8567
vn 0.4220 0.4455 -0.7896
vn 0.5680 0.4455 -0.6921
vn 0.6921 0.4455 -0.5680
vn 0.7896 0.4455 -0.4220
vn 0.8567 0.4455 -0.2599
vn 0.8910 0.4455 -0.0878
vn 0.8910 0.4455 0.0878
vn 0.8567 0.4455 0.2599
vn 0.7896 0.4455 0.4220
vn 0.6921 0.4455 0.5680
vn 0.5680 0.4455 0.6921
vn 0.4220 0.4455 0.7896
vn 0.2599 0.4455 0.8567
vn 0.0878 0.4455 0.8910
vn -0.0878 0.4455 0.8910
vn -0.2599 0.4455 0.8567
vn -0.4220 0.4455 0.7896
vn -0.5680 0.4455 0.6921
vn -0.6921 0.4455 0.5680
vn -0.7896 0.4455 0.4220
vn -0.8567 0.4455 0.2599
vn -0.8910 0.4455 0.0878
vn -0.8910 0.4455 -0.0878
vn -0.8567 0.4455 -0.2599
vn -0.7896 0.4455 -0.4220
vn -0.6921 0.4455 -0.5680
vn -0.5680 0.4455 -0.6921
vn -0.4220 0.4455 -0.7896
vn -0.2599 0.4455 -0.8567
vn -0.0878 0.4455 -0.8910
vn 0.0000 -1.0000 -0.0000
usemtl None
s off
f 34//34 43//34 35//34
f 35//35 43//35 36//35
f 36//36 43//36 37//36
f 37//37 43//37 38//37
f 38//38 43//38 39//38
f 39//39 43//39 40//39
f 40//40 43//40 41//40
f 41//41 43//41 42//41
f 42//42 43//42 44//42
f 44//43 43//43 45//43
f 45//44 43//44 46//44
f 46//45 43//45 47//45
f 47//46 43//46 48//46
f 48//47 43//47 49//47
f 49//48 43//48 50//48
f 50//49 43//49 51//49
f 51//50 43//50 52//50
f 52//51 43//51 53//51
f 53//52 43//52 54//52
f 54//53 43//53 55//53
f 55//54 43//54 56//54
f 56//55 43//55 57//55
f 57//56 43//56 58//56
f 58//57 43//57 59//57
f 59//58 43//58 60//58
f 60//59 43//59 61//59
f 61//60 43//60 62//60
f 62//61 43//61 63//61
f 63//62 43//62 64//62
f 64//63 43//63 65//63
f 65//64 43//64 66//64
f 66//65 43//65 34//65
f 34//66 35//66 36//66 37//66 38//66 39//66 40//66 41//66 42//66 44//66 45//66 46//66 47//66 48//66 49//66 50//66 51//66 52//66 53//66 54//66 55//66 56//66 57//66 58//66 59//66 60//66 61//66 62//66 63//66 64//66 65//66 66//66
o Cube
v 1.000000 -1.000000 -1.000000
v 1.000000 -1.000000 1.000000
v -1.000000 -1.000000 1.000000
v -1.000000 -1.000000 -1.000000
v 1.000000 1.000000 -0.999999
v 0.999999 1.000000 1.000001
v -1.000000 1.000000 1.000000
v -1.000000 1.000000 -1.000000
vn 0.0000 -1.0000 0.0000
vn 0.0000 1.0000 0.0000
vn 1.0000 0.0000 0.0000
vn -0.0000 -0.0000 1.0000
vn -1.0000 -0.0000 -0.0000
vn 0.0000 0.0000 -1.0000
usemtl Material
s off
f 67//67 68//67 69//67 70//67
f 71//68 74//68 73//68 72//68
f 67//69 71//69 72//69 68//69
f 68//70 72//70 73//70 69//70
f 69//71 73//71 74//71 70//71
f 71//72 67//72 70//72 74//72
